<?xml version="1.0" encoding="iso-8859-1"?>
<!-- Generator: Adobe Illustrator 19.0.0, SVG Export Plug-In . SVG Version: 6.00 Build 0)  -->
<svg version="1.1" id="Layer_1" xmlns="http://www.w3.org/2000/svg" xmlns:xlink="http://www.w3.org/1999/xlink" x="0px" y="0px"
	 viewBox="0 0 490 490" style="enable-background:new 0 0 490 490;" xml:space="preserve">
<g>
	<path d="M468.236,204.3c-13.6-14.6-32.3-21.9-53.2-21.9c-19.8,0-39.5,7.7-55.3,20.5v-38.3c0-26.1-20.9-48-48-48h-16.7V57.3
		c0-31.3-26.1-57.3-57.3-57.3h-115.6c-31.3,0-57.3,26.1-57.3,57.3v59.4h-16.8c-26.1,0-48,20.9-48,48V442c0,26.1,20.9,48,48,48h264.8
		c26.1,0,48-21.9,48-49v-25.5c10-4.5,19.2-11,27.1-19.4l75.1-75.1C496.336,287.7,499.536,235.6,468.236,204.3z M106.436,57.3
		c0-9.4,7.3-16.7,16.7-16.7h115.7c9.4,0,16.7,7.3,16.7,16.7v59.4h-149.1C106.436,116.7,106.436,57.3,106.436,57.3z M300.336,372.2
		c-14.6-14.6-12.5-40.7,5.2-58.4l22.9-22.9l54.2,54.2l-22.8,22.9C350.436,377.4,321.136,393,300.336,372.2z M311.836,448.3h-263.8
		c-4.2,0-7.3-3.1-7.3-7.3V164.7c0-4.2,3.1-7.3,7.3-7.3h262.7c4.2,0,7.3,3.1,7.3,7.3c0,0,0.2,77.2,0.5,78.7l-41.2,41.2
		c-33.4,33.4-36.5,85.5-5.2,116.8c12.2,13.1,28.6,20.3,46.9,21.6v18C319.136,445.2,316.036,448.3,311.836,448.3z M434.836,293
		l-22.9,22.9l-54.2-54.2l22.9-22.9c27-23.7,51.1-13.6,59.4-4.2C454.636,249.2,452.536,275.2,434.836,293z"/>
</g>
<g>
</g>
<g>
</g>
<g>
</g>
<g>
</g>
<g>
</g>
<g>
</g>
<g>
</g>
<g>
</g>
<g>
</g>
<g>
</g>
<g>
</g>
<g>
</g>
<g>
</g>
<g>
</g>
<g>
</g>
</svg>
